#define smile_width 8
#define smile_height 8
static unsigned char smile_bits[] = {
   0x3c, 0x42, 0xa5, 0x81, 0xa5, 0x99, 0x42, 0x3c };
