#define smile_width 8
#define smile_height 8
static unsigned char smile_bits[] = {
   0x3c, 0x7e, 0xdb, 0xff, 0xff, 0xdb, 0x66, 0x3c };
